<?xml version="1.0" encoding="utf-8"?>
<!-- Generator: Adobe Illustrator 23.0.3, SVG Export Plug-In . SVG Version: 6.00 Build 0)  -->
<svg version="1.1" id="图层_1" xmlns="http://www.w3.org/2000/svg" xmlns:xlink="http://www.w3.org/1999/xlink" x="0px"
    y="0px" viewBox="0 0 38 38" style="enable-background:new 0 0 38 38;" xml:space="preserve">
    <g>
        <path d="M1,38c-0.1,0-0.3,0-0.4-0.1C0.2,37.8,0,37.4,0,37V1c0-0.6,0.4-1,1-1h36c0.6,0,1,0.4,1,1v27c0,0.6-0.4,1-1,1H10.4l-8.7,8.7
		C1.5,37.9,1.3,38,1,38z M2,2v32.6l7.3-7.3C9.5,27.1,9.7,27,10,27h26V2H2z" />
        <path d="M28,11H10c-0.6,0-1-0.4-1-1s0.4-1,1-1h18c0.6,0,1,0.4,1,1S28.6,11,28,11z" />
        <path d="M28,20H10c-0.6,0-1-0.4-1-1s0.4-1,1-1h18c0.6,0,1,0.4,1,1S28.6,20,28,20z" />
    </g>
</svg>