<?xml version="1.0" encoding="utf-8"?>
<!-- Generator: Adobe Illustrator 23.0.3, SVG Export Plug-In . SVG Version: 6.00 Build 0)  -->
<svg version="1.1" id="图层_1" xmlns="http://www.w3.org/2000/svg" xmlns:xlink="http://www.w3.org/1999/xlink" x="0px"
    y="0px" viewBox="0 0 39 39" style="enable-background:new 0 0 39 39;" xml:space="preserve">
    <style type="text/css">
        .st0-unheart {
            fill: none;
            stroke: #000000;
            stroke-width: 2;
            stroke-linecap: round;
            stroke-linejoin: round;
            stroke-miterlimit: 10;
        }

        .st1-unheart {
            fill: #FFFFFF;
        }

        .st2 {
            fill: #F4EFEF;
        }

        .st3 {
            clip-path: url(#SVGID_2_);
            fill: #FFFFFF;
        }
    </style>
    <g>
        <path class="st1-unheart" d="M19.4,30.9c-0.3,0-0.5-0.1-0.7-0.3L9,20.9c-1.2-1.2-1.9-2.8-1.9-4.5c0-1.7,0.7-3.3,1.9-4.5
		c2.5-2.5,6.5-2.5,9,0l1.5,1.5l1.5-1.5c2.5-2.5,6.5-2.5,9,0c2.5,2.5,2.5,6.5,0,9c0,0,0,0,0,0l-9.9,9.7
		C19.9,30.8,19.7,30.9,19.4,30.9z M13.5,12c-1.1,0-2.2,0.4-3.1,1.3c-1.7,1.7-1.7,4.5,0,6.2l9,9l9.2-9c1.7-1.7,1.7-4.5,0-6.2
		c-1.7-1.7-4.5-1.7-6.2,0l-2.2,2.2c-0.2,0.2-0.4,0.3-0.7,0.3l0,0c-0.3,0-0.5-0.1-0.7-0.3l-2.2-2.2C15.7,12.5,14.6,12,13.5,12z
		 M29.3,20.2L29.3,20.2L29.3,20.2z" />
        <path class="st1-unheart" d="M19.5,39C8.7,39,0,30.3,0,19.5S8.7,0,19.5,0S39,8.7,39,19.5S30.3,39,19.5,39z M19.5,2C9.9,2,2,9.9,2,19.5
		S9.9,37,19.5,37S37,29.1,37,19.5S29.1,2,19.5,2z" />
    </g>
</svg>