<?xml version="1.0" encoding="utf-8"?>
<!-- Generator: Adobe Illustrator 23.0.3, SVG Export Plug-In . SVG Version: 6.00 Build 0)  -->
<svg version="1.1" id="图层_1" xmlns="http://www.w3.org/2000/svg" xmlns:xlink="http://www.w3.org/1999/xlink" x="0px"
    y="0px" viewBox="0 0 47 47" style="enable-background:new 0 0 47 47;" xml:space="preserve">
    <style type="text/css">
        .st1-narrow {
            fill: #FFFFFF;
        }
    </style>
    <g class="st1-narrow">
        <path d="M19,20H1c-0.6,0-1-0.4-1-1s0.4-1,1-1h17V1c0-0.6,0.4-1,1-1s1,0.4,1,1v18C20,19.6,19.6,20,19,20z" />
        <path
            d="M28,47c-0.6,0-1-0.4-1-1V28c0-0.6,0.4-1,1-1h18c0.6,0,1,0.4,1,1s-0.4,1-1,1H29v17C29,46.6,28.6,47,28,47z" />
        <path d="M46,47c-0.3,0-0.5-0.1-0.7-0.3l-18-18c-0.4-0.4-0.4-1,0-1.4s1-0.4,1.4,0l18,18c0.4,0.4,0.4,1,0,1.4
		C46.5,46.9,46.3,47,46,47z" />
        <path d="M19,20c-0.3,0-0.5-0.1-0.7-0.3l-18-18c-0.4-0.4-0.4-1,0-1.4s1-0.4,1.4,0l18,18c0.4,0.4,0.4,1,0,1.4
		C19.5,19.9,19.3,20,19,20z" />
    </g>
</svg>