<svg id="图层_1" data-name="图层 1" xmlns="http://www.w3.org/2000/svg" viewBox="0 0 56.7 54.9">
    <defs>
        <style>
            .icon-capsule-car-1 {
                fill: none;
                stroke: #000;
                stroke-linecap: round;
                stroke-linejoin: round;
                stroke-width: 2px;
            }
        </style>
    </defs>
    <line class="icon-capsule-car-1" x1="19.9" y1="10.9" x2="10.3" y2="10.9" />
    <line class="icon-capsule-car-1" x1="10.3" y1="19.9" x2="27.3" y2="19.9" />
    <line class="icon-capsule-car-1" x1="10.3" y1="29" x2="25.4" y2="29" />
    <path class="icon-capsule-car-1"
        d="M25.4,25.1a8,8,0,0,1,8-8h1.9a10.87,10.87,0,0,1,2.6.4V9.9a8,8,0,0,0-8-8H4.9a3,3,0,0,0-3,3v30a3,3,0,0,0,3,3H25.4Z" />
    <polyline class="icon-capsule-car-1" points="28.9 1.9 28.9 10.9 37.9 10.9" />
    <path class="icon-capsule-car-1"
        d="M35.3,42.1H33.4a8,8,0,0,1-8-8V25a8,8,0,0,1,8-8h1.9a8,8,0,0,1,8,8v9.1A8,8,0,0,1,35.3,42.1Z" />
    <line class="icon-capsule-car-1" x1="25.4" y1="29.6" x2="43.3" y2="29.6" />
    <polyline class="icon-capsule-car-1" points="55.7 1 47.1 45.9 1 45.9" />
    <circle class="icon-capsule-car-1" cx="7.5" cy="50.4" r="3.5" />
    <circle class="icon-capsule-car-1" cx="36.5" cy="50.4" r="3.5" />
</svg>