<?xml version="1.0" encoding="utf-8"?>
<!-- Generator: Adobe Illustrator 23.0.3, SVG Export Plug-In . SVG Version: 6.00 Build 0)  -->
<svg version="1.1" id="图层_1" xmlns="http://www.w3.org/2000/svg" xmlns:xlink="http://www.w3.org/1999/xlink" x="0px"
    y="0px" viewBox="0 0 42.2 42.2" style="enable-background:new 0 0 42.2 42.2;" xml:space="preserve">
    <style type="text/css">
        .st0 {
            fill: none;
            stroke: #000000;
            stroke-width: 2;
            stroke-linecap: round;
            stroke-linejoin: round;
            stroke-miterlimit: 10;
        }

        .st1-expand {
            fill: #ffffff;
        }

        .st2 {
            fill: #F4EFEF;
        }

        .st3 {
            clip-path: url(#SVGID_2_);
            fill: #FFFFFF;
        }
    </style>
    <g>
        <g>
            <path class="st1-expand"
                d="M1,20c-0.6,0-1-0.4-1-1V1c0-0.6,0.4-1,1-1h18c0.6,0,1,0.4,1,1s-0.4,1-1,1H2v17C2,19.6,1.6,20,1,20z" />
            <path class="st1-expand" d="M19,20c-0.3,0-0.5-0.1-0.7-0.3l-18-18c-0.4-0.4-0.4-1,0-1.4s1-0.4,1.4,0l18,18c0.4,0.4,0.4,1,0,1.4
			C19.5,19.9,19.3,20,19,20z" />
        </g>
        <path class="st1-expand" d="M41.2,42.2h-18c-0.6,0-1-0.4-1-1s0.4-1,1-1h17v-17c0-0.6,0.4-1,1-1s1,0.4,1,1v18
		C42.2,41.8,41.8,42.2,41.2,42.2z" />
        <path class="st1-expand" d="M41.2,42.2c-0.3,0-0.5-0.1-0.7-0.3l-18-18c-0.4-0.4-0.4-1,0-1.4s1-0.4,1.4,0l18,18c0.4,0.4,0.4,1,0,1.4
		C41.7,42.1,41.5,42.2,41.2,42.2z" />
    </g>
</svg>