<?xml version="1.0" encoding="utf-8"?>
<!-- Generator: Adobe Illustrator 23.0.3, SVG Export Plug-In . SVG Version: 6.00 Build 0)  -->
<svg version="1.1" id="图层_1" xmlns="http://www.w3.org/2000/svg" xmlns:xlink="http://www.w3.org/1999/xlink" x="0px"
    y="0px" viewBox="0 0 39 39" style="enable-background:new 0 0 39 39;" xml:space="preserve">
    <style type="text/css">
        .st1-heart {
            fill: #FFFFFF;
        }
    </style>
    <g>
        <path class="st1-heart" d="M29.3,20.2c2.1-2.1,2.1-5.5,0-7.6s-5.5-2.1-7.6,0l-2.2,2.2l-2.2-2.2c-2.1-2.1-5.5-2.1-7.6,0s-2.1,5.5,0,7.6
		l9.7,9.7L29.3,20.2z" />
        <path class="st1-heart" d="M19.5,39C8.7,39,0,30.3,0,19.5S8.7,0,19.5,0S39,8.7,39,19.5S30.3,39,19.5,39z M19.5,2C9.9,2,2,9.9,2,19.5
		S9.9,37,19.5,37S37,29.1,37,19.5S29.1,2,19.5,2z" />
    </g>
</svg>