<?xml version="1.0" encoding="utf-8"?>
<!-- Generator: Adobe Illustrator 23.0.3, SVG Export Plug-In . SVG Version: 6.00 Build 0)  -->
<svg version="1.1" id="图层_1" xmlns="http://www.w3.org/2000/svg" xmlns:xlink="http://www.w3.org/1999/xlink" x="0px"
    y="0px" viewBox="0 0 39 38" style="enable-background:new 0 0 39 38;" xml:space="preserve">
    <style type="text/css">
        .icon-confirm0 {
            fill: none;
            stroke: #000000;
            stroke-width: 2;
            stroke-linecap: round;
            stroke-linejoin: round;
            stroke-miterlimit: 10;
        }

        .icon-confirm1 {
            fill: #FFFFFF;
        }

        .icon-confirm2 {
            fill: #F4EFEF;
        }

        .icon-confirm3 {
            clip-path: url(#SVGID_2_);
            fill: #FFFFFF;
        }
    </style>
    <g>
        <path class="icon-confirm1" d="M6.4,33.6c-0.3,0-0.5-0.1-0.7-0.3c-7.6-7.6-7.6-19.9,0-27.6c7.6-7.6,20-7.6,27.6,0c7.6,7.6,7.6,20,0,27.6
		c-0.4,0.4-1,0.4-1.4,0c-0.4-0.4-0.4-1,0-1.4c6.8-6.9,6.8-18,0-24.8c-6.9-6.8-18-6.8-24.8,0c-6.8,6.9-6.8,18,0,24.8
		c0.4,0.4,0.4,1,0,1.4C6.9,33.5,6.6,33.6,6.4,33.6z" />
        <path class="icon-confirm1" d="M16.2,27.3c-0.4,0-0.8-0.1-1.1-0.4l-5.9-5.9c-0.6-0.6-0.6-1.5,0-2.1c0.6-0.6,1.5-0.6,2.1,0l4.8,4.8l11.2-11.2
		c0.6-0.6,1.5-0.6,2.1,0c0.6,0.6,0.6,1.5,0,2.1L17.2,26.8C16.9,27.1,16.6,27.3,16.2,27.3z" />
        <path class="icon-confirm1" d="M29.4,38H9.5c-0.6,0-1-0.4-1-1s0.4-1,1-1h19.9c0.6,0,1,0.4,1,1S29.9,38,29.4,38z" />
    </g>
</svg>