<?xml version="1.0" encoding="utf-8"?>
<!-- Generator: Adobe Illustrator 23.0.3, SVG Export Plug-In . SVG Version: 6.00 Build 0)  -->
<svg version="1.1" id="图层_1" xmlns="http://www.w3.org/2000/svg" xmlns:xlink="http://www.w3.org/1999/xlink" x="0px" y="0px"
	 viewBox="0 0 39.5 39" style="enable-background:new 0 0 39.5 39;" xml:space="preserve">
<style type="text/css">
	.st0{fill:none;stroke:#000000;stroke-width:2;stroke-linecap:round;stroke-linejoin:round;stroke-miterlimit:10;}
	.st1{fill:#FFFFFF;}
	.st2{fill:#F4EFEF;}
	.st3{clip-path:url(#SVGID_2_);fill:#FFFFFF;}
</style>
<g>
	<path d="M19.5,39C8.7,39,0,30.3,0,19.5S8.7,0,19.5,0c5.1,0,10,2,13.8,5.7c0.4,0.4,0.4,1,0,1.4c-0.4,0.4-1,0.4-1.4,0
		C28.5,3.8,24.1,2,19.5,2C9.9,2,2,9.9,2,19.5S9.9,37,19.5,37S37,29.1,37,19.5c0-0.6,0.4-1,1-1s1,0.4,1,1C39,30.3,30.3,39,19.5,39z"
		/>
	<path d="M23,29.6c-1.7,0-3.4-0.6-4.7-1.9l-8.1-8.1c-1.3-1.3-1.9-2.9-1.9-4.7c0-1.8,0.7-3.5,1.9-4.7c2.6-2.6,6.8-2.6,9.4,0l8.1,8.1
		c1.3,1.2,2,2.9,2,4.7c0,1.8-0.7,3.5-2,4.7C26.4,28.9,24.7,29.6,23,29.6z M14.9,10.1c-1.2,0-2.4,0.5-3.3,1.4c-0.9,0.9-1.4,2-1.4,3.3
		c0,1.2,0.5,2.4,1.4,3.3l8.1,8.1c1.8,1.8,4.8,1.8,6.6,0c0,0,0,0,0,0c0.9-0.9,1.4-2,1.4-3.3c0-1.2-0.5-2.4-1.4-3.3l-8.1-8.1
		C17.3,10.6,16.1,10.1,14.9,10.1z"/>
	<path d="M14.9,23.9c-0.3,0-0.5-0.1-0.7-0.3c-0.4-0.4-0.4-1,0-1.4l8.1-8.1c0.4-0.4,1-0.4,1.4,0s0.4,1,0,1.4l-8.1,8.1
		C15.4,23.8,15.2,23.9,14.9,23.9z"/>
	<circle cx="36.7" cy="12.3" r="2.8"/>
</g>
</svg>
