<?xml version="1.0" encoding="utf-8"?>
<!-- Generator: Adobe Illustrator 23.0.3, SVG Export Plug-In . SVG Version: 6.00 Build 0)  -->
<svg version="1.1" id="图层_1" xmlns="http://www.w3.org/2000/svg" xmlns:xlink="http://www.w3.org/1999/xlink" x="0px" y="0px"
	 viewBox="0 0 48 39" style="enable-background:new 0 0 48 39;" xml:space="preserve">
<style type="text/css">
	.st0{fill:none;stroke:#000000;stroke-width:2;stroke-linecap:round;stroke-linejoin:round;stroke-miterlimit:10;}
	.st1{fill:#FFFFFF;}
	.st2{fill:#F4EFEF;}
	.st3{clip-path:url(#SVGID_2_);fill:#FFFFFF;}
</style>
<g>
	<path d="M10.1,30.5c-1.1,0-2-0.9-2-2v-9c0-1.1,0.9-2,2-2s2,0.9,2,2v9C12.1,29.6,11.2,30.5,10.1,30.5z"/>
	<path d="M19.3,30.5c-1.1,0-2-0.9-2-2v-18c0-1.1,0.9-2,2-2s2,0.9,2,2v18C21.3,29.6,20.4,30.5,19.3,30.5z"/>
	<path d="M28.4,30.5c-1.1,0-2-0.9-2-2v-9c0-1.1,0.9-2,2-2s2,0.9,2,2v9C30.4,29.6,29.5,30.5,28.4,30.5z"/>
	<path d="M37.5,30.5c-1.1,0-2-0.9-2-2v-18c0-1.1,0.9-2,2-2s2,0.9,2,2v18C39.5,29.6,38.6,30.5,37.5,30.5z"/>
	<path d="M46.5,39h-45C0.7,39,0,38.3,0,37.5v-36C0,0.7,0.7,0,1.5,0S3,0.7,3,1.5V36h43.5c0.8,0,1.5,0.7,1.5,1.5S47.3,39,46.5,39z"/>
	<circle cx="19.2" cy="3.1" r="2.2"/>
</g>
</svg>
