<?xml version="1.0" encoding="utf-8"?>
<!-- Generator: Adobe Illustrator 23.0.3, SVG Export Plug-In . SVG Version: 6.00 Build 0)  -->
<svg version="1.1" id="图层_1" xmlns="http://www.w3.org/2000/svg" xmlns:xlink="http://www.w3.org/1999/xlink" x="0px" y="0px"
	 viewBox="0 0 81.6 81.6" style="enable-background:new 0 0 81.6 81.6;" xml:space="preserve">
<style type="text/css">
	.st0{fill:none;stroke:#000000;stroke-width:2;stroke-linecap:round;stroke-linejoin:round;stroke-miterlimit:10;}
	.st1{fill:#FFFFFF;}
	.st2{fill:#F4EFEF;}
	.st3{clip-path:url(#SVGID_2_);fill:#FFFFFF;}
</style>
<g>
	<path d="M40.8,81.6C18.3,81.6,0,63.3,0,40.8C0,18.3,18.3,0,40.8,0c22.5,0,40.8,18.3,40.8,40.8C81.6,63.3,63.3,81.6,40.8,81.6z
		 M40.8,2C19.4,2,2,19.4,2,40.8c0,21.4,17.4,38.8,38.8,38.8c21.4,0,38.8-17.4,38.8-38.8C79.6,19.4,62.2,2,40.8,2z"/>
	<path d="M53.4,61.6l-26-15c-2.1-1.2-3.4-3.4-3.4-5.8c0-2.4,1.3-4.6,3.3-5.8l26-15l1,1.7l-26,15c-1.5,0.9-2.3,2.4-2.3,4
		c0,1.7,0.9,3.2,2.4,4l26,15L53.4,61.6z"/>
</g>
</svg>
