<?xml version="1.0" encoding="utf-8"?>
<!-- Generator: Adobe Illustrator 23.0.3, SVG Export Plug-In . SVG Version: 6.00 Build 0)  -->
<svg version="1.1" id="图层_1" xmlns="http://www.w3.org/2000/svg" xmlns:xlink="http://www.w3.org/1999/xlink" x="0px" y="0px"
	 viewBox="0 0 48.1 39.5" style="enable-background:new 0 0 48.1 39.5;" xml:space="preserve">
<style type="text/css">
	.st0{fill:none;stroke:#000000;stroke-width:2;stroke-linecap:round;stroke-linejoin:round;stroke-miterlimit:10;}
	.st1{fill:#FFFFFF;}
	.st2{fill:#F4EFEF;}
	.st3{clip-path:url(#SVGID_2_);fill:#FFFFFF;}
</style>
<g>
	<path d="M10.2,39.5c-1.1,0-2-0.9-2-2v-9c0-1.1,0.9-2,2-2s2,0.9,2,2v9C12.2,38.6,11.3,39.5,10.2,39.5z"/>
	<path d="M19.3,39.5c-1.1,0-2-0.9-2-2v-18c0-1.1,0.9-2,2-2s2,0.9,2,2v18C21.3,38.6,20.4,39.5,19.3,39.5z"/>
	<path d="M28.4,39.5c-1.1,0-2-0.9-2-2v-9c0-1.1,0.9-2,2-2s2,0.9,2,2v9C30.4,38.6,29.5,39.5,28.4,39.5z"/>
	<path d="M37.5,39.5c-1.1,0-2-0.9-2-2v-18c0-1.1,0.9-2,2-2s2,0.9,2,2v18C39.5,38.6,38.6,39.5,37.5,39.5z"/>
	<path d="M1.5,38.5c-0.6,0-1-0.4-1-1v-36c0-0.6,0.4-1,1-1s1,0.4,1,1v36C2.5,38.1,2.1,38.5,1.5,38.5z"/>
	<circle cx="19.3" cy="12.7" r="2.2"/>
	<path d="M46.6,39c-0.8,0-1.5-0.7-1.5-1.5V3H3v34.5C3,38.3,2.3,39,1.5,39S0,38.3,0,37.5v-36C0,0.7,0.7,0,1.5,0h45.1
		c0.8,0,1.5,0.7,1.5,1.5v36C48.1,38.3,47.4,39,46.6,39z"/>
</g>
</svg>
