<?xml version="1.0" encoding="utf-8"?>
<!-- Generator: Adobe Illustrator 23.0.3, SVG Export Plug-In . SVG Version: 6.00 Build 0)  -->
<svg version="1.1" id="图层_1" xmlns="http://www.w3.org/2000/svg" xmlns:xlink="http://www.w3.org/1999/xlink" x="0px" y="0px"
	 viewBox="0 0 47 47" style="enable-background:new 0 0 47 47;" xml:space="preserve">
<style type="text/css">
	.st0{fill:none;stroke:#000000;stroke-width:2;stroke-linecap:round;stroke-linejoin:round;stroke-miterlimit:10;}
	.st1{fill:#FFFFFF;}
	.st2{fill:#F4EFEF;}
	.st3{clip-path:url(#SVGID_2_);fill:#FFFFFF;}
</style>
<g>
	<path d="M23.5,47C10.5,47,0,36.5,0,23.5S10.5,0,23.5,0S47,10.5,47,23.5S36.5,47,23.5,47z M23.5,2C11.6,2,2,11.6,2,23.5
		S11.6,45,23.5,45S45,35.4,45,23.5S35.4,2,23.5,2z"/>
	<path d="M18.6,34.3c-1.2,0-2.5-0.5-3.4-1.4l-6.8-6.8l1.4-1.4l6.8,6.8c1.1,1.1,2.9,1.1,4,0l16.2-16.2l1.4,1.4L22,32.9
		C21.1,33.8,19.8,34.3,18.6,34.3z"/>
</g>
</svg>
