<?xml version="1.0" encoding="utf-8"?>
<!-- Generator: Adobe Illustrator 23.0.3, SVG Export Plug-In . SVG Version: 6.00 Build 0)  -->
<svg version="1.1" id="图层_1" xmlns="http://www.w3.org/2000/svg" xmlns:xlink="http://www.w3.org/1999/xlink" x="0px" y="0px"
	 viewBox="0 0 38 38" style="enable-background:new 0 0 38 38;" xml:space="preserve">
<style type="text/css">
	.st0{fill:none;stroke:#000000;stroke-width:2;stroke-linecap:round;stroke-linejoin:round;stroke-miterlimit:10;}
	.st1{fill:#FFFFFF;}
	.st2{fill:#F4EFEF;}
	.st3{clip-path:url(#SVGID_2_);fill:#FFFFFF;}
</style>
<g>
	<path d="M37,38H22c-0.5,0-0.9-0.4-1-0.8l-2-12.1l-2,12.1c-0.1,0.5-0.5,0.8-1,0.8H1c-0.6,0-1-0.4-1-1V1c0-0.6,0.4-1,1-1h36
		c0.6,0,1,0.4,1,1v36C38,37.6,37.6,38,37,38z M22.8,36H36V2H2v34h13.2L18,18.8c0.1-0.5,0.5-0.8,1-0.8s0.9,0.4,1,0.8L22.8,36z"/>
	<path d="M37,5.9H1c-0.2,0-0.4-0.2-0.4-0.4S0.8,5.1,1,5.1h36c0.2,0,0.4,0.2,0.4,0.4S37.2,5.9,37,5.9z"/>
	<path d="M17,11h-2.4c-0.6,0-1-0.4-1-1s0.4-1,1-1H17c0.6,0,1,0.4,1,1S17.6,11,17,11z"/>
	<path d="M22.8,11h-2.4c-0.6,0-1-0.4-1-1s0.4-1,1-1h2.4c0.6,0,1,0.4,1,1S23.4,11,22.8,11z"/>
</g>
</svg>
