<?xml version="1.0" encoding="utf-8"?>
<!-- Generator: Adobe Illustrator 23.0.3, SVG Export Plug-In . SVG Version: 6.00 Build 0)  -->
<svg version="1.1" id="图层_1" xmlns="http://www.w3.org/2000/svg" xmlns:xlink="http://www.w3.org/1999/xlink" x="0px" y="0px"
	 viewBox="0 0 36 36" style="enable-background:new 0 0 36 36;" xml:space="preserve">
<style type="text/css">
	.st0{fill:none;stroke:#000000;stroke-width:2;stroke-linecap:round;stroke-linejoin:round;stroke-miterlimit:10;}
	.st1{fill:#FFFFFF;}
	.st2{fill:#F4EFEF;}
	.st3{clip-path:url(#SVGID_2_);fill:#FFFFFF;}
</style>
<g>
	<polygon points="36,27 9,27 0,36 0,27 0,0 36,0 	"/>
	<path class="st1" d="M27,10H9c-0.6,0-1-0.4-1-1s0.4-1,1-1h18c0.6,0,1,0.4,1,1S27.6,10,27,10z"/>
	<path class="st1" d="M27,19H9c-0.6,0-1-0.4-1-1s0.4-1,1-1h18c0.6,0,1,0.4,1,1S27.6,19,27,19z"/>
</g>
</svg>
