<?xml version="1.0" encoding="utf-8"?>
<!-- Generator: Adobe Illustrator 23.0.3, SVG Export Plug-In . SVG Version: 6.00 Build 0)  -->
<svg version="1.1" id="图层_1" xmlns="http://www.w3.org/2000/svg" xmlns:xlink="http://www.w3.org/1999/xlink" x="0px" y="0px"
	 viewBox="0 0 38 23.2" style="enable-background:new 0 0 38 23.2;" xml:space="preserve">
<style type="text/css">
	.st0{fill:none;stroke:#000000;stroke-width:2;stroke-linecap:round;stroke-linejoin:round;stroke-miterlimit:10;}
	.st1{fill:#FFFFFF;}
	.st2{fill:#F4EFEF;}
	.st3{clip-path:url(#SVGID_2_);fill:#FFFFFF;}
</style>
<g>
	<path d="M19,23.2c-1.8,0-3.5-0.7-4.7-1.9l-14-14C0.1,7,0,6.8,0,6.5V1c0-0.6,0.4-1,1-1h36c0.6,0,1,0.4,1,1v5.5
		c0,0.3-0.1,0.5-0.3,0.7l-14,14C22.5,22.5,20.8,23.2,19,23.2z M2,6.1l13.7,13.7c0.9,0.9,2,1.4,3.3,1.4c1.2,0,2.4-0.5,3.3-1.4L36,6.1
		V2H2V6.1z"/>
</g>
</svg>
