<?xml version="1.0" encoding="utf-8"?>
<!-- Generator: Adobe Illustrator 23.0.3, SVG Export Plug-In . SVG Version: 6.00 Build 0)  -->
<svg version="1.1" id="图层_1" xmlns="http://www.w3.org/2000/svg" xmlns:xlink="http://www.w3.org/1999/xlink" x="0px" y="0px"
	 viewBox="0 0 39.5 39.6" style="enable-background:new 0 0 39.5 39.6;" xml:space="preserve">
<style type="text/css">
	.st0{fill:none;stroke:#000000;stroke-width:2;stroke-linecap:round;stroke-linejoin:round;stroke-miterlimit:10;}
	.st1{fill:#FFFFFF;}
	.st2{fill:#F4EFEF;}
	.st3{clip-path:url(#SVGID_2_);fill:#FFFFFF;}
</style>
<g>
	<g>
		<rect x="1" y="1" class="st1" width="16.1" height="16.1"/>
		<path class="st1" d="M17.1,18.1H1c-0.6,0-1-0.4-1-1V1c0-0.6,0.4-1,1-1h16.1c0.6,0,1,0.4,1,1v16.1C18.1,17.7,17.7,18.1,17.1,18.1z
			 M2,16.1h14.1V2H2V16.1z"/>
	</g>
	<g>
		<rect x="22.4" y="1" class="st1" width="16.1" height="16.1"/>
		<path class="st1" d="M38.5,18.1H22.4c-0.6,0-1-0.4-1-1V1c0-0.6,0.4-1,1-1h16.1c0.6,0,1,0.4,1,1v16.1
			C39.5,17.7,39.1,18.1,38.5,18.1z M23.4,16.1h14.1V2H23.4V16.1z"/>
	</g>
	<g>
		<rect x="1" y="22.5" class="st1" width="16.1" height="16.1"/>
		<path class="st1" d="M17.1,39.6H1c-0.6,0-1-0.4-1-1V22.5c0-0.6,0.4-1,1-1h16.1c0.6,0,1,0.4,1,1v16.1
			C18.1,39.2,17.7,39.6,17.1,39.6z M2,37.6h14.1V23.5H2V37.6z"/>
	</g>
	<g>
		<rect x="22.4" y="22.5" class="st1" width="16.1" height="16.1"/>
		<path class="st1" d="M38.5,39.6H22.4c-0.6,0-1-0.4-1-1V22.5c0-0.6,0.4-1,1-1h16.1c0.6,0,1,0.4,1,1v16.1
			C39.5,39.2,39.1,39.6,38.5,39.6z M23.4,37.6h14.1V23.5H23.4V37.6z"/>
	</g>
</g>
</svg>
