<?xml version="1.0" encoding="utf-8"?>
<!-- Generator: Adobe Illustrator 23.0.3, SVG Export Plug-In . SVG Version: 6.00 Build 0)  -->
<svg version="1.1" id="图层_1" xmlns="http://www.w3.org/2000/svg" xmlns:xlink="http://www.w3.org/1999/xlink" x="0px" y="0px"
	 viewBox="0 0 61.8 62" style="enable-background:new 0 0 61.8 62;" xml:space="preserve">
<style type="text/css">
	.st0{fill:none;stroke:#000000;stroke-width:2;stroke-linecap:round;stroke-linejoin:round;stroke-miterlimit:10;}
	.st1{fill:#FFFFFF;}
	.st2{fill:#F4EFEF;}
	.st3{clip-path:url(#SVGID_2_);fill:#FFFFFF;}
</style>
<g>
	<path d="M28.3,47.4c-8.7,0-15.7-7-15.7-15.7c0-8.7,7-15.7,15.7-15.7C36.9,16,44,23,44,31.7C44,40.4,36.9,47.4,28.3,47.4z M28.3,18
		c-7.6,0-13.7,6.1-13.7,13.7s6.1,13.7,13.7,13.7S42,39.2,42,31.7S35.8,18,28.3,18z"/>
	<circle cx="28.3" cy="31.7" r="2.9"/>
	<rect x="42.4" y="40.5" transform="matrix(0.7071 -0.7071 0.7071 0.7071 -20.3109 44.3536)" width="2" height="12.4"/>
</g>
</svg>
