<?xml version="1.0" encoding="utf-8"?>
<!-- Generator: Adobe Illustrator 23.0.3, SVG Export Plug-In . SVG Version: 6.00 Build 0)  -->
<svg version="1.1" id="图层_1" xmlns="http://www.w3.org/2000/svg" xmlns:xlink="http://www.w3.org/1999/xlink" x="0px" y="0px"
	 viewBox="0 0 38.1 56.1" style="enable-background:new 0 0 38.1 56.1;" xml:space="preserve">
<style type="text/css">
	.st0{fill:none;stroke:#000000;stroke-width:2;stroke-linecap:round;stroke-linejoin:round;stroke-miterlimit:10;}
	.st1{fill:#FFFFFF;}
	.st2{fill:#F4EFEF;}
	.st3{clip-path:url(#SVGID_2_);fill:#FFFFFF;}
</style>
<g>
	<path d="M19.1,56.1c-1.8,0-3.5-0.7-4.7-1.9l-14-14c-0.2-0.2-0.3-0.4-0.3-0.7v-5.5c0-0.6,0.4-1,1-1h36c0.6,0,1,0.4,1,1v5.5
		c0,0.3-0.1,0.5-0.3,0.7l-14,14C22.6,55.4,20.9,56.1,19.1,56.1z M2.1,39l13.7,13.7c0.9,0.9,2,1.4,3.3,1.4c1.2,0,2.4-0.5,3.3-1.4
		L36.1,39v-4.1h-34V39z"/>
	<path d="M37.1,21.5c-0.6,0-1-0.4-1-1V1c0-0.6,0.4-1,1-1s1,0.4,1,1v19.5C38.1,21.1,37.7,21.5,37.1,21.5z"/>
	<path d="M10,30.5c-0.2,0-0.4,0-0.6,0C4.1,30.2,0,25.6,0,20.2V1c0-0.6,0.4-1,1-1s1,0.4,1,1v19.2c0,4.4,3.3,8,7.5,8.3
		c2.5,0.2,5-0.9,6.8-3c0.7-0.8,1.7-1.3,2.8-1.3c1.1,0,2.1,0.5,2.8,1.3c1.6,1.9,3.9,2.9,6.2,2.9c4.4,0,8-3.6,8-8c0-0.6,0.4-1,1-1
		s1,0.4,1,1c0,5.5-4.5,10-10,10c-3,0-5.8-1.3-7.8-3.7c-0.7-0.8-1.9-0.8-2.6,0C15.7,29.2,12.9,30.5,10,30.5z"/>
	<path d="M19.8,14.6H19c-0.3,0-0.5-0.1-0.7-0.3c-2.1-2.1-4.8-3.2-7.7-3.2s-5.7,1.1-7.7,3.2c-0.4,0.4-1,0.4-1.4,0s-0.4-1,0-1.4
		c2.5-2.5,5.7-3.8,9.2-3.8c3.3,0,6.4,1.2,8.9,3.5c5.1-4.8,13.1-4.7,18,0.3c0.4,0.4,0.4,1,0,1.4s-1,0.4-1.4,0
		c-4.3-4.3-11.1-4.3-15.5,0C20.3,14.5,20.1,14.6,19.8,14.6z"/>
	<path d="M36.7,19.2c-0.1,0-0.1,0-0.2-0.1c-4.6-4.6-11.9-4.6-16.5,0c0,0-0.1,0.1-0.2,0.1H19c-0.1,0-0.1,0-0.2-0.1
		c-2.2-2.2-5.2-3.5-8.3-3.5c-3.1,0-6,1.2-8.3,3.5c-0.1,0.1-0.3,0.1-0.4,0s-0.1-0.3,0-0.4c2.3-2.3,5.4-3.6,8.6-3.6
		c3.2,0,6.2,1.3,8.6,3.5h0.6c4.8-4.8,12.4-4.7,17.2,0.1c0.1,0.1,0.1,0.3,0,0.4C36.8,19.2,36.8,19.2,36.7,19.2z"/>
</g>
</svg>
