<?xml version="1.0" encoding="utf-8"?>
<!-- Generator: Adobe Illustrator 23.0.3, SVG Export Plug-In . SVG Version: 6.00 Build 0)  -->
<svg version="1.1" id="图层_1" xmlns="http://www.w3.org/2000/svg" xmlns:xlink="http://www.w3.org/1999/xlink" x="0px" y="0px"
	 viewBox="0 0 52.7 43.6" style="enable-background:new 0 0 52.7 43.6;" xml:space="preserve">
<style type="text/css">
	.st0{fill:none;stroke:#000000;stroke-width:2;stroke-linecap:round;stroke-linejoin:round;stroke-miterlimit:10;}
	.st1{fill:#FFFFFF;}
	.st2{fill:#F4EFEF;}
	.st3{clip-path:url(#SVGID_2_);fill:#FFFFFF;}
</style>
<g>
	<path d="M19.1,11H9.5c-0.6,0-1-0.4-1-1s0.4-1,1-1h9.6c0.6,0,1,0.4,1,1S19.7,11,19.1,11z"/>
	<path d="M28.1,20H9.5c-0.6,0-1-0.4-1-1s0.4-1,1-1h18.6c0.6,0,1,0.4,1,1S28.7,20,28.1,20z"/>
	<path d="M26.3,29.1H9.5c-0.6,0-1-0.4-1-1s0.4-1,1-1h16.8c0.6,0,1,0.4,1,1S26.9,29.1,26.3,29.1z"/>
	<path d="M37.1,11h-9c-0.6,0-1-0.4-1-1V1c0-0.6,0.4-1,1-1s1,0.4,1,1v8h8c0.6,0,1,0.4,1,1S37.7,11,37.1,11z"/>
	<path d="M37,41.3c-6.5,0-11.8-5.3-11.8-11.8c0-6.5,5.3-11.8,11.8-11.8S48.8,23,48.8,29.5C48.8,36,43.5,41.3,37,41.3z M37,19.7
		c-5.4,0-9.8,4.4-9.8,9.8s4.4,9.8,9.8,9.8s9.8-4.4,9.8-9.8S42.4,19.7,37,19.7z"/>
	<path d="M29.1,38H4c-2.2,0-4-1.8-4-4V4c0-2.2,1.8-4,4-4h25c5,0,9,4,9,9v9.7c0,0.6-0.4,1-1,1c-5.4,0-9.8,4.4-9.8,9.8
		c0,2.6,1,5.1,2.6,6.8c0.3,0.3,0.4,0.7,0.2,1.1C29.9,37.8,29.5,38,29.1,38z M4,2C2.9,2,2,2.9,2,4v30c0,1.1,0.9,2,2,2h23.1
		c-1.2-1.9-1.9-4.2-1.9-6.5c0-6.2,4.8-11.2,10.8-11.8V9c0-3.9-3.1-7-7-7H4z"/>
	<rect x="47.8" y="35.1" transform="matrix(0.7071 -0.7071 0.7071 0.7071 -13.7585 46.0848)" width="2" height="9.2"/>
	<g>
		<rect x="31.3" y="28.5" width="11.5" height="2"/>
		<rect x="36" y="23.8" width="2" height="11.5"/>
	</g>
</g>
</svg>
