<?xml version="1.0" encoding="utf-8"?>
<!-- Generator: Adobe Illustrator 23.0.3, SVG Export Plug-In . SVG Version: 6.00 Build 0)  -->
<svg version="1.1" id="图层_1" xmlns="http://www.w3.org/2000/svg" xmlns:xlink="http://www.w3.org/1999/xlink" x="0px" y="0px"
	 viewBox="0 0 38 56" style="enable-background:new 0 0 38 56;" xml:space="preserve">
<style type="text/css">
	.st0{fill:none;stroke:#000000;stroke-width:2;stroke-linecap:round;stroke-linejoin:round;stroke-miterlimit:10;}
	.st1{fill:#FFFFFF;}
	.st2{fill:#F4EFEF;}
	.st3{clip-path:url(#SVGID_2_);fill:#FFFFFF;}
</style>
<g>
	<path d="M19,56c-1.8,0-3.5-0.7-4.7-1.9l-14-14C0,39.8-0.1,39.4,0,39.1l2-8.4L0,1.1C0,0.5,0.4,0,0.9,0C1.5,0,2,0.4,2,0.9l2,29.8
		c0,0.1,0,0.2,0,0.3l-1.9,8l13.6,13.6c0.9,0.9,2,1.4,3.3,1.4c1.2,0,2.4-0.5,3.3-1.4L35.9,39L34,30.5c0-0.1,0-0.2,0-0.3l2-29.3
		c0-0.6,0.5-1,1.1-0.9c0.6,0,1,0.5,0.9,1.1l-2,29.2l2,8.9c0.1,0.3,0,0.7-0.3,0.9l-14,14C22.5,55.3,20.8,56,19,56z"/>
	<path d="M19.4,14.6h-0.8c-0.3,0-0.5-0.1-0.7-0.3C13.6,10,6.7,10,2.4,14.3c-0.4,0.4-1,0.4-1.4,0s-0.4-1,0-1.4c4.9-4.9,12.9-5,18-0.3
		c2.4-2.3,5.5-3.5,8.9-3.5c3.4,0,6.7,1.4,9.2,3.8c0.4,0.4,0.4,1,0,1.4s-1,0.4-1.4,0c-2.1-2.1-4.8-3.2-7.7-3.2s-5.7,1.1-7.7,3.2
		C19.9,14.5,19.7,14.6,19.4,14.6z"/>
	<path d="M19.4,19.3h-0.8c-0.1,0-0.1,0-0.2-0.1c-4.6-4.6-11.9-4.6-16.5,0c-0.1,0.1-0.3,0.1-0.4,0s-0.1-0.3,0-0.4
		C6.3,14,13.9,14,18.7,18.8h0.6c2.3-2.3,5.3-3.5,8.6-3.5c3.2,0,6.3,1.3,8.6,3.6c0.1,0.1,0.1,0.3,0,0.4s-0.3,0.1-0.4,0
		c-2.2-2.2-5.2-3.5-8.3-3.5c-3.1,0-6,1.2-8.3,3.5C19.5,19.2,19.5,19.3,19.4,19.3z"/>
</g>
</svg>
