<?xml version="1.0" encoding="utf-8"?>
<!-- Generator: Adobe Illustrator 23.0.3, SVG Export Plug-In . SVG Version: 6.00 Build 0)  -->
<svg version="1.1" id="图层_1" xmlns="http://www.w3.org/2000/svg" xmlns:xlink="http://www.w3.org/1999/xlink" x="0px" y="0px"
	 viewBox="0 0 39 39" style="enable-background:new 0 0 39 39;" xml:space="preserve">
<style type="text/css">
	.st0{fill:none;stroke:#000000;stroke-width:2;stroke-linecap:round;stroke-linejoin:round;stroke-miterlimit:10;}
	.st1{fill:#FFFFFF;}
	.st2{fill:#F4EFEF;}
	.st3{clip-path:url(#SVGID_2_);fill:#FFFFFF;}
</style>
<g>
	<path class="st1" d="M19.5,39C8.7,39,0,30.3,0,19.5S8.7,0,19.5,0S39,8.7,39,19.5S30.3,39,19.5,39z M19.5,2C9.9,2,2,9.9,2,19.5
		S9.9,37,19.5,37S37,29.1,37,19.5S29.1,2,19.5,2z"/>
	<path class="st1" d="M20.2,14.3h-8.3c-0.3,0-0.5-0.2-0.5-0.5s0.2-0.5,0.5-0.5h8.3c0.3,0,0.5,0.2,0.5,0.5S20.5,14.3,20.2,14.3z"/>
	<path class="st1" d="M20.2,20.8h-8.3c-0.3,0-0.5-0.2-0.5-0.5s0.2-0.5,0.5-0.5h8.3c0.3,0,0.5,0.2,0.5,0.5S20.5,20.8,20.2,20.8z"/>
	<path class="st1" d="M27.2,27.3H11.9c-0.3,0-0.5-0.2-0.5-0.5s0.2-0.5,0.5-0.5h15.3c0.3,0,0.5,0.2,0.5,0.5S27.5,27.3,27.2,27.3z"/>
	<g>
		<rect x="23.5" y="10.2" class="st1" width="4.4" height="9.7"/>
		<polyline class="st1" points="23.5,20.7 25.7,23.3 27.8,20.7 		"/>
	</g>
</g>
</svg>
