<?xml version="1.0" encoding="utf-8"?>
<!-- Generator: Adobe Illustrator 23.0.3, SVG Export Plug-In . SVG Version: 6.00 Build 0)  -->
<svg version="1.1" id="图层_1" xmlns="http://www.w3.org/2000/svg" xmlns:xlink="http://www.w3.org/1999/xlink" x="0px" y="0px"
	 viewBox="0 0 44 38" style="enable-background:new 0 0 44 38;" xml:space="preserve">
<style type="text/css">
	.st0{fill:none;stroke:#000000;stroke-width:2;stroke-linecap:round;stroke-linejoin:round;stroke-miterlimit:10;}
	.st1{fill:#FFFFFF;}
	.st2{fill:#F4EFEF;}
	.st3{clip-path:url(#SVGID_2_);fill:#FFFFFF;}
</style>
<g>
	<path d="M43,38H23c-0.5,0-1-0.4-1-0.9l0,0l0,0c0,0.5-0.5,0.9-1,0.9H1c-0.3,0-0.5-0.1-0.7-0.3C0.1,37.5,0,37.2,0,36.9l3-36
		C3,0.4,3.5,0,4,0h36c0.5,0,1,0.4,1,0.9l3,36c0,0.3-0.1,0.6-0.3,0.8C43.5,37.9,43.3,38,43,38z M23.9,36h18L39.1,2H4.9L2.1,36h18
		L21,18.9c0-0.5,0.5-0.9,1-0.9s1,0.4,1,0.9L23.9,36z"/>
	<path d="M40,5.9H4c-0.2,0-0.4-0.2-0.4-0.4S3.8,5.1,4,5.1h36c0.2,0,0.4,0.2,0.4,0.4S40.2,5.9,40,5.9z"/>
	<path d="M20,11h-2.4c-0.6,0-1-0.4-1-1s0.4-1,1-1H20c0.6,0,1,0.4,1,1S20.6,11,20,11z"/>
	<path d="M25.8,11h-2.4c-0.6,0-1-0.4-1-1s0.4-1,1-1h2.4c0.6,0,1,0.4,1,1S26.4,11,25.8,11z"/>
</g>
</svg>
