<?xml version="1.0" encoding="utf-8"?>
<!-- Generator: Adobe Illustrator 23.0.3, SVG Export Plug-In . SVG Version: 6.00 Build 0)  -->
<svg version="1.1" id="图层_1" xmlns="http://www.w3.org/2000/svg" xmlns:xlink="http://www.w3.org/1999/xlink" x="0px" y="0px"
	 viewBox="0 0 39 37" style="enable-background:new 0 0 39 37;" xml:space="preserve">
<style type="text/css">
	.st0{fill:none;stroke:#000000;stroke-width:2;stroke-linecap:round;stroke-linejoin:round;stroke-miterlimit:10;}
	.st1{fill:#FFFFFF;}
	.st2{fill:#F4EFEF;}
	.st3{clip-path:url(#SVGID_2_);fill:#FFFFFF;}
</style>
<g>
	<path class="st1" d="M6.4,33.6c-0.3,0-0.5-0.1-0.7-0.3c-7.6-7.6-7.6-19.9,0-27.6c7.6-7.6,20-7.6,27.6,0c7.6,7.6,7.6,20,0,27.6
		c-0.4,0.4-1,0.4-1.4,0c-0.4-0.4-0.4-1,0-1.4c6.8-6.9,6.8-18,0-24.8c-6.9-6.8-18-6.8-24.8,0c-6.8,6.9-6.8,18,0,24.8
		c0.4,0.4,0.4,1,0,1.4C6.9,33.5,6.6,33.6,6.4,33.6z"/>
	<path class="st1" d="M19.5,37c-0.6,0-1-0.4-1-1V16.8c0-0.6,0.4-1,1-1s1,0.4,1,1V36C20.5,36.5,20,37,19.5,37z"/>
	<path class="st1" d="M26.3,20.8l-5.9-5.9c-0.5-0.5-1.2-0.5-1.7,0l-5.9,5.9c-0.7,0.7-0.2,2,0.8,2h11.8
		C26.6,22.8,27.1,21.5,26.3,20.8z"/>
</g>
</svg>
