<svg id="图层_1" data-name="图层 1" xmlns="http://www.w3.org/2000/svg" viewBox="0 0 21.9 12.95"><path d="M9.6,12.63a7.33,7.33,0,0,0,2.4-2,14.58,14.58,0,0,0,9.9-4.2h0A14.69,14.69,0,0,0,12,2.33a7.33,7.33,0,0,0-2.4-2,10.26,10.26,0,0,0-5.5.1c-.8.5-.2,1.3,0,1.6s1.8,1.5,1.7,1.8a.89.89,0,0,1-.3.8,3,3,0,0,0-.8,1.8h0a3.33,3.33,0,0,0,.8,1.8.89.89,0,0,1,.3.8c.1.3-1.5,1.6-1.7,1.8s-.8,1.1,0,1.6S8.7,13.13,9.6,12.63Zm2.2-6.2a2,2,0,1,1,2,2A2,2,0,0,1,11.8,6.43Z"/><path d="M3.9,7.93a2.26,2.26,0,0,1-.5-1.5,2.26,2.26,0,0,1,.5-1.5.78.78,0,0,0,0-1.1,3.63,3.63,0,0,0-2.3.1c-.4.3.2.6.3,1s-.9.8-1.4,1c-.3.1-.5.2-.5.4s.3.3.5.4c.5.2,1.4.5,1.4,1s-.6.8-.3,1a3.66,3.66,0,0,0,2.3.1C4.2,8.83,4.2,8.43,3.9,7.93Z"/></svg>