<?xml version="1.0" encoding="utf-8"?>
<svg id="图层_1" data-name="图层 1" xmlns="http://www.w3.org/2000/svg" viewBox="0 0 50 41.1">
    <defs>
        <style> 
            .icon-download1,.icon-download2,.icon-download3{fill:none;stroke:#000;}
            .icon-download1,.icon-download3{stroke-linecap:round;stroke-linejoin:round;}
            .icon-download1,.icon-download2{stroke-width:2px;}.icon-download2{stroke-miterlimit:10;}
            .icon-download3{stroke-width:1.5px;}
        </style>
    </defs>
    <line class="icon-download1" x1="19" y1="10" x2="9.4" y2="10"/>
    <line class="icon-download1" x1="9.4" y1="19" x2="24.4" y2="19"/>
    <line class="icon-download1" x1="9.4" y1="28.1" x2="22" y2="28.1"/>
    <polyline class="icon-download1" points="28 1 28 10 37 10"/>
    <circle class="icon-download2" cx="35.5" cy="26.6" r="13.5"/>
    <path class="icon-download1" d="M22,26.6A13.44,13.44,0,0,1,35.5,13.1a7.57,7.57,0,0,1,1.5.1V9a8,8,0,0,0-8-8H4A3,3,0,0,0,1,4V34a3,3,0,0,0,3,3H26.8A13.69,13.69,0,0,1,22,26.6Z"/>
    <polyline class="icon-download3" points="29.8 30.1 35.6 35 41.5 30.1"/>
    <line class="icon-download3" x1="35.6" y1="35" x2="35.6" y2="18.1"/>
</svg>