<svg id="图层_1" data-name="图层 1" xmlns="http://www.w3.org/2000/svg" viewBox="0 0 47 38">
    <defs>
        <style>
            .icon-save-1 {
                fill: none;
                stroke: #000;
                stroke-linecap: round;
                stroke-linejoin: round;
                stroke-width: 2px;
            }
        </style>
    </defs>
    <polyline class="icon-save-1" points="28 1 28 1 28 10 10 10 10 1" />
    <line class="icon-save-1" x1="9.4" y1="19" x2="28" y2="19" />
    <line class="icon-save-1" x1="9.4" y1="28.1" x2="28" y2="28.1" />
    <circle class="icon-save-1" cx="37" cy="28" r="9" />
    <path class="icon-save-1"
        d="M28,28a9,9,0,0,1,9-9V9a8,8,0,0,0-8-8H4A3,3,0,0,0,1,4V34a3,3,0,0,0,3,3H34a4.25,4.25,0,0,0,1.1-.2A9,9,0,0,1,28,28Z" />
    <polyline class="icon-save-1" points="32.5 28 35.6 31.1 41.7 24.9" />
</svg>