<svg id="图层_1" data-name="图层 1" xmlns="http://www.w3.org/2000/svg" viewBox="0 0 91 82.9"><defs><style>.cls-1{fill:none;stroke:#000;stroke-miterlimit:10;}</style></defs><circle cx="13.6" cy="42.4" r="3.2"/><path d="M20,52A6.4,6.4,0,1,0,7.2,52Z"/><circle cx="77" cy="42.4" r="3.2"/><path d="M83.4,52a6.4,6.4,0,0,0-12.8,0Z"/><circle cx="45.9" cy="9" r="3.2"/><circle class="cls-1" cx="45.5" cy="77.9" r="4.5"/><path d="M52.3,18.6a6.4,6.4,0,1,0-12.8,0Z"/><circle class="cls-1" cx="14" cy="45.5" r="13.5"/><circle class="cls-1" cx="77" cy="45.5" r="13.5"/><circle class="cls-1" cx="45.5" cy="14" r="13.5"/><path d="M38.7,34.3h9.7c2.6,0,4.5.8,5.6,2.4a5.66,5.66,0,0,1-.2,6.7A5.23,5.23,0,0,1,52,44.7a6.37,6.37,0,0,1,2.6,1.5,5.44,5.44,0,0,1,1.5,4.1,6.21,6.21,0,0,1-1.4,3.9c-1.4,1.8-3.5,2.6-6.5,2.6H38.7Zm8.6,9.5a7.75,7.75,0,0,0,3-.5,3.18,3.18,0,0,0,1.7-3,2.93,2.93,0,0,0-1.8-3,8,8,0,0,0-3-.4H41.7v7h5.6Zm1,10.3c1.9,0,3.2-.5,4-1.6a4.15,4.15,0,0,0,.8-2.5,3.25,3.25,0,0,0-2.2-3.3,8.72,8.72,0,0,0-3.1-.5H41.7v7.9Z"/><path class="cls-1" d="M63.5,45.5A13.42,13.42,0,0,1,74.1,32.3,31.2,31.2,0,0,0,58.7,16.9a13.52,13.52,0,0,1-26.4,0A31.2,31.2,0,0,0,16.9,32.3a13.52,13.52,0,0,1,0,26.4,31.48,31.48,0,0,0,24.3,18,4.33,4.33,0,0,1,4.3-3.2,4.53,4.53,0,0,1,4.3,3.2,31.48,31.48,0,0,0,24.3-18A13.42,13.42,0,0,1,63.5,45.5Z"/></svg>