<svg id="图层_1" data-name="图层 1" xmlns="http://www.w3.org/2000/svg" viewBox="0 0 76 64"><path d="M40.7,35.4a5.6,5.6,0,0,0,2.9-4.9A5.48,5.48,0,0,0,38.1,25a5.55,5.55,0,0,0-5.5,5.5,5.72,5.72,0,0,0,2.9,4.9,11,11,0,0,0-8.4,10.7H49.2A11.11,11.11,0,0,0,40.7,35.4Z"/><path d="M55.8,44.9H33.7a.47.47,0,0,1-.5-.5A11.41,11.41,0,0,1,41,33.5a5.89,5.89,0,0,1-2.2-4.7,6,6,0,1,1,12,0,6.18,6.18,0,0,1-2.2,4.7,11.54,11.54,0,0,1,7.8,10.9A.63.63,0,0,1,55.8,44.9Zm-21.6-1H55.3a10.45,10.45,0,0,0-8-9.7.43.43,0,0,1-.4-.4.55.55,0,0,1,.3-.5,5.09,5.09,0,0,0,2.6-4.4,5,5,0,0,0-5-5,5,5,0,0,0-2.4,9.4.55.55,0,0,1,.3.5.43.43,0,0,1-.4.4A10.43,10.43,0,0,0,34.2,43.9Z"/><path d="M60.4,40.1H54.7a.55.55,0,0,1-.5-.3,10.84,10.84,0,0,0-7-5.7.43.43,0,0,1-.4-.4.55.55,0,0,1,.3-.5,5.09,5.09,0,0,0,2.6-4.4,5,5,0,0,0-5-5,2.49,2.49,0,0,0-.8.1c-.2,0-.3,0-.4-.1a.76.76,0,0,1-.2-.4,6,6,0,0,1,12,.7,6.18,6.18,0,0,1-2.2,4.7,11.54,11.54,0,0,1,7.8,10.9A.46.46,0,0,1,60.4,40.1Zm-5.4-1h4.9a10.45,10.45,0,0,0-8-9.7.43.43,0,0,1-.4-.4.55.55,0,0,1,.3-.5,5.09,5.09,0,0,0,2.6-4.4,5,5,0,0,0-5-5,5.13,5.13,0,0,0-4.9,3.8h.3a6,6,0,0,1,3.8,10.7A10.27,10.27,0,0,1,55,39.1Z"/><path d="M23.4,46H.5a.47.47,0,0,1-.5-.5v-27A.47.47,0,0,1,.5,18H17a6.91,6.91,0,0,1,6.9,6.9V45.5A.54.54,0,0,1,23.4,46ZM1,45H22.9V24.9A5.85,5.85,0,0,0,17,19H1Z"/><path d="M18.5,30H5.5a.5.5,0,0,1,0-1h13a.47.47,0,0,1,.5.5A.54.54,0,0,1,18.5,30Z"/><path d="M18.5,34.2H5.5a.5.5,0,0,1,0-1h13a.47.47,0,0,1,.5.5A.54.54,0,0,1,18.5,34.2Z"/><path d="M18.5,39H5.5a.5.5,0,0,1,0-1h13a.47.47,0,0,1,.5.5A.54.54,0,0,1,18.5,39Z"/><path d="M14.3,25.5a1,1,0,0,1-.3-.1.52.52,0,0,1-.2-.4V18.4a.5.5,0,0,1,1,0v6.1l8.5-.2h0a.5.5,0,0,1,0,1l-9,.2Z"/><path d="M27.8,40.4H23.4a.47.47,0,0,1-.5-.5v-15A5.85,5.85,0,0,0,17,19H4.9a.47.47,0,0,1-.5-.5V12.9a.47.47,0,0,1,.5-.5H21.4a6.91,6.91,0,0,1,6.9,6.9V39.9A.54.54,0,0,1,27.8,40.4Zm-3.9-1h3.4V19.3a5.85,5.85,0,0,0-5.9-5.9H5.4V18H17a6.91,6.91,0,0,1,6.9,6.9Z"/><path d="M44,64A32.18,32.18,0,0,1,15.1,45.7a.45.45,0,0,1,0-.5.76.76,0,0,1,.4-.2h7.4V39.9a.47.47,0,0,1,.5-.5h3.9V19.3a5.85,5.85,0,0,0-5.9-5.9H18.9c-.2,0-.4-.1-.4-.3s-.1-.4.1-.5A32,32,0,1,1,44,64ZM16.3,46A31,31,0,1,0,44,1,30.59,30.59,0,0,0,20,12.4h1.4a6.91,6.91,0,0,1,6.9,6.9V39.9a.47.47,0,0,1-.5.5H23.9v5.1a.47.47,0,0,1-.5.5Z"/></svg>